<?xml version="1.0" encoding="UTF-8" standalone="no"?>
<!DOCTYPE svg PUBLIC "-//W3C//DTD SVG 1.1//EN" "http://www.w3.org/Graphics/SVG/1.1/DTD/svg11.dtd">
<svg width="100%" height="100%" viewBox="0 0 11424 2192" version="1.1" xmlns="http://www.w3.org/2000/svg" xmlns:xlink="http://www.w3.org/1999/xlink" xml:space="preserve" xmlns:serif="http://www.serif.com/" style="fill-rule:evenodd;clip-rule:evenodd;stroke-linejoin:round;stroke-miterlimit:2;">
    <g transform="matrix(1,0,0,1,4492.92,266.001)">
        <g transform="matrix(6.84074,0,0,6.84074,-7117.86,-4847.24)">
            <g transform="matrix(0.485519,0,0,0.485519,279.798,426.969)">
                <g transform="matrix(1,0,0,1,214.047,482.294)">
                    <rect x="0" y="17.647" width="423.529" height="423.648" style="fill:rgb(253,233,23);fill-opacity:0;"/>
                </g>
                <g transform="matrix(1,0,0,1,208.347,476.569)">
                    <path d="M345.176,60.706L247.059,158.824C238.588,167.294 233.647,178.588 233.647,190.588C233.647,202.588 238.588,213.882 247.059,222.353L345.176,321.176C347.294,323.294 350.118,324 352.941,324C355.765,324 358.588,322.588 360.706,321.176L458.824,223.059C476.471,205.412 476.471,176.471 458.824,158.824L360.706,60.706C356.471,57.176 349.412,57.176 345.176,60.706Z" style="fill:rgb(40,222,206);fill-rule:nonzero;"/>
                </g>
                <g transform="matrix(1,0,0,1,208.347,476.569)">
                    <path d="M307.059,370.588C307.059,367.765 305.647,364.941 304.235,362.824L205.412,264.706C187.765,247.059 158.824,247.059 141.176,264.706L43.059,362.824C40.941,364.941 40.235,367.765 40.235,370.588C40.235,373.412 41.647,376.235 43.059,378.353L141.176,476.471C149.647,484.941 160.941,489.882 172.941,489.882C184.941,489.882 196.235,484.941 204.706,476.471L303.529,378.353C305.647,376.235 307.059,373.412 307.059,370.588Z" style="fill:rgb(40,222,206);fill-rule:nonzero;"/>
                </g>
                <g transform="matrix(1,0,0,1,208.347,476.569)">
                    <path d="M564.706,264.706C547.059,247.059 518.118,247.059 500.471,264.706L402.353,362.824C400.235,364.941 399.529,367.765 399.529,370.588C399.529,373.412 400.941,376.235 402.353,378.353L500.471,476.471C508.941,484.941 520.235,489.882 532.235,489.882C544.235,489.882 555.529,484.941 564,476.471L662.118,378.353C666.353,374.118 666.353,367.765 662.118,363.529L564.706,264.706Z" style="fill:rgb(40,222,206);fill-rule:nonzero;"/>
                </g>
                <g transform="matrix(1,0,0,1,208.347,476.569)">
                    <path d="M360.706,420C356.471,415.765 350.118,415.765 345.882,420L247.059,518.118C229.412,535.765 229.412,564.706 247.059,582.353L345.176,680.471C347.294,682.588 350.118,683.294 352.941,683.294C355.765,683.294 358.588,682.588 360.706,680.471L458.824,582.353C476.471,564.706 476.471,535.765 458.824,518.118L360.706,420Z" style="fill:rgb(40,222,206);fill-rule:nonzero;"/>
                </g>
            </g>
            <g transform="matrix(1,0,0,1,783.992,879.914)">
                <path d="M111.953,-84.071C117.506,-84.071 122.353,-83.012 126.494,-80.894C130.682,-78.776 134.094,-75.882 136.729,-72.212C139.365,-68.494 141.341,-64.188 142.659,-59.294C143.976,-54.447 144.635,-49.176 144.635,-43.482L144.635,17.647L120.918,17.647L120.918,-43.482C120.918,-48.094 119.247,-52.047 115.906,-55.341C112.753,-58.635 108.8,-60.282 104.047,-60.282C99.294,-60.282 95.341,-58.635 92.188,-55.341C88.894,-52.047 87.247,-48.094 87.247,-43.482L87.247,17.647L63.529,17.647L63.529,-43.482C63.529,-48.094 61.882,-52.047 58.588,-55.341C56.988,-57.082 55.176,-58.353 53.153,-59.153C51.082,-59.906 48.918,-60.282 46.659,-60.282C41.812,-60.282 37.812,-58.635 34.659,-55.341C31.318,-52.047 29.647,-48.094 29.647,-43.482L29.647,17.647L5.929,17.647L5.929,-81.247L29.647,-81.247L29.647,-72.565C33.506,-75.859 37.529,-78.588 41.718,-80.753C45.953,-82.965 50.259,-84.071 54.635,-84.071C60.565,-84.071 65.435,-82.871 69.247,-80.471C73.059,-78.118 76.494,-74.824 79.553,-70.588C83.082,-74.4 87.694,-77.6 93.388,-80.188C99.035,-82.776 105.224,-84.071 111.953,-84.071ZM257.576,-19.976L180.847,-19.976C182.165,-16.918 184.071,-14.212 186.565,-11.859C189.341,-9.082 192.447,-6.988 195.882,-5.576C199.318,-4.212 202.941,-3.529 206.753,-3.529C212.165,-3.529 216.988,-4.776 221.224,-7.271L245.929,2.612C241.176,8.165 235.435,12.494 228.706,15.6C221.976,18.659 214.659,20.188 206.753,20.188C199.506,20.188 192.706,18.847 186.353,16.165C180.047,13.482 174.518,9.765 169.765,5.012C165.012,0.259 161.271,-5.294 158.541,-11.647C155.859,-17.953 154.518,-24.682 154.518,-31.835C154.518,-39.082 155.859,-45.859 158.541,-52.165C161.271,-58.518 165.012,-64.071 169.765,-68.824C174.518,-73.576 180.047,-77.294 186.353,-79.976C192.706,-82.706 199.506,-84.071 206.753,-84.071C214,-84.071 220.8,-82.706 227.153,-79.976C233.459,-77.294 238.988,-73.576 243.741,-68.824C248.494,-64.071 252.212,-58.518 254.894,-52.165C257.624,-45.859 258.988,-39.082 258.988,-31.835C258.988,-27.6 258.518,-23.647 257.576,-19.976ZM206.753,-60.282C199.082,-60.282 192.353,-57.529 186.565,-52.024C184.071,-49.482 182.165,-46.706 180.847,-43.694L232.659,-43.694C231.341,-46.706 229.435,-49.482 226.941,-52.024C221.388,-57.529 214.659,-60.282 206.753,-60.282ZM319.694,-84.071C326.188,-84.071 332.071,-82.847 337.341,-80.4C342.612,-77.953 347.129,-74.588 350.894,-70.306C354.659,-66.024 357.553,-61.035 359.576,-55.341C361.647,-49.694 362.682,-43.624 362.682,-37.129L362.682,17.647L338.894,17.647L338.894,-37.129C338.894,-43.765 336.588,-49.247 331.976,-53.576C327.506,-58.047 322.094,-60.282 315.741,-60.282C309.294,-60.282 303.835,-58.047 299.365,-53.576C294.847,-49.106 292.588,-43.624 292.588,-37.129L292.588,17.647L268.871,17.647L268.871,-81.247L292.588,-81.247L292.588,-73.765C296.165,-76.776 300.188,-79.247 304.659,-81.176C309.176,-83.106 314.188,-84.071 319.694,-84.071ZM420.847,-6.071L426.776,17.647L404.965,17.647C400.494,17.647 396.282,16.8 392.329,15.106C388.376,13.365 384.941,11.012 382.024,8.047C379.153,5.082 376.847,1.624 375.106,-2.329C373.412,-6.282 372.565,-10.494 372.565,-14.965L372.565,-101.294L396.282,-107.224L396.282,-69.388L410.118,-69.388L416.047,-45.671L396.282,-45.671L396.282,-14.965C396.282,-12.471 397.153,-10.376 398.894,-8.682C400.588,-6.941 402.612,-6.071 404.965,-6.071L420.847,-6.071ZM478.024,-60.282C470.118,-60.282 463.388,-57.529 457.835,-52.024C452.282,-46.471 449.506,-39.741 449.506,-31.835C449.506,-24.024 452.282,-17.365 457.835,-11.859C460.471,-9.082 463.529,-6.988 467.012,-5.576C470.494,-4.212 474.165,-3.529 478.024,-3.529C481.835,-3.529 485.459,-4.212 488.894,-5.576C492.329,-6.988 495.435,-9.082 498.212,-11.859C503.718,-17.365 506.471,-24.024 506.471,-31.835C506.471,-39.741 503.718,-46.471 498.212,-52.024C492.376,-57.529 485.647,-60.282 478.024,-60.282ZM478.024,-84.071C485.271,-84.071 492.047,-82.706 498.353,-79.976C504.706,-77.294 510.259,-73.576 515.012,-68.824C519.765,-64.071 523.482,-58.518 526.165,-52.165C528.894,-45.859 530.259,-39.082 530.259,-31.835C530.259,-24.682 528.894,-17.953 526.165,-11.647C523.482,-5.294 519.765,0.259 515.012,5.012C510.259,9.765 504.706,13.482 498.353,16.165C492.047,18.847 485.271,20.188 478.024,20.188C470.776,20.188 463.976,18.847 457.624,16.165C451.271,13.482 445.741,9.765 441.035,5.012C436.282,0.259 432.541,-5.294 429.812,-11.647C427.129,-17.953 425.788,-24.682 425.788,-31.835C425.788,-39.082 427.129,-45.859 429.812,-52.165C432.541,-58.518 436.282,-64.071 441.035,-68.824C445.741,-73.576 451.271,-77.294 457.624,-79.976C463.976,-82.706 470.776,-84.071 478.024,-84.071ZM564.847,-73.765C568.565,-76.776 572.753,-79.271 577.412,-81.247C582.118,-83.224 587.435,-84.212 593.365,-84.212L593.365,-60.494C585.459,-60.494 578.729,-57.718 573.176,-52.165C567.624,-46.376 564.847,-39.671 564.847,-32.047L564.847,17.647L541.129,17.647L541.129,-81.459L564.847,-81.459L564.847,-73.765ZM632.894,17.647L609.176,17.647L609.176,-6.071L632.894,-6.071L632.894,17.647ZM751.835,-19.976L675.035,-19.976C676.353,-16.918 678.282,-14.212 680.824,-11.859C683.6,-9.082 686.682,-6.988 690.071,-5.576C693.506,-4.212 697.153,-3.529 701.012,-3.529C706.376,-3.529 711.176,-4.776 715.412,-7.271L740.188,2.612C735.435,8.165 729.694,12.494 722.965,15.6C716.235,18.659 708.918,20.188 701.012,20.188C693.718,20.188 686.918,18.847 680.612,16.165C674.259,13.482 668.706,9.765 663.953,5.012C659.247,0.259 655.529,-5.294 652.8,-11.647C650.118,-17.953 648.776,-24.682 648.776,-31.835C648.776,-39.082 650.118,-45.859 652.8,-52.165C655.529,-58.518 659.247,-64.071 663.953,-68.824C668.706,-73.576 674.259,-77.294 680.612,-79.976C686.918,-82.706 693.718,-84.071 701.012,-84.071C708.259,-84.071 715.035,-82.706 721.341,-79.976C727.694,-77.294 733.247,-73.576 738,-68.824C742.753,-64.071 746.471,-58.518 749.153,-52.165C751.882,-45.859 753.247,-39.082 753.247,-31.835C753.247,-27.6 752.776,-23.647 751.835,-19.976ZM701.012,-60.282C693.341,-60.282 686.612,-57.529 680.824,-52.024C678.282,-49.482 676.353,-46.706 675.035,-43.694L726.918,-43.694C725.6,-46.706 723.671,-49.482 721.129,-52.024C715.624,-57.529 708.918,-60.282 701.012,-60.282ZM813.953,-84.071C820.4,-84.071 826.259,-82.847 831.529,-80.4C836.847,-77.953 841.365,-74.588 845.082,-70.306C848.847,-66.024 851.765,-61.035 853.835,-55.341C855.859,-49.694 856.871,-43.624 856.871,-37.129L856.871,17.647L833.153,17.647L833.153,-37.129C833.153,-43.765 830.847,-49.247 826.235,-53.576C821.718,-58.047 816.306,-60.282 810,-60.282C803.553,-60.282 798.071,-58.047 793.553,-53.576C789.082,-49.106 786.847,-43.624 786.847,-37.129L786.847,17.647L763.129,17.647L763.129,-81.247L786.847,-81.247L786.847,-73.765C790.424,-76.776 794.447,-79.247 798.918,-81.176C803.388,-83.106 808.4,-84.071 813.953,-84.071ZM968.894,-19.976L892.094,-19.976C893.412,-16.918 895.318,-14.212 897.812,-11.859C900.588,-9.082 903.694,-6.988 907.129,-5.576C910.565,-4.212 914.188,-3.529 918,-3.529C923.412,-3.529 928.235,-4.776 932.471,-7.271L957.176,2.612C952.424,8.165 946.682,12.494 939.953,15.6C933.224,18.659 925.906,20.188 918,20.188C910.753,20.188 903.976,18.847 897.671,16.165C891.318,13.482 885.765,9.765 881.012,5.012C876.259,0.259 872.541,-5.294 869.859,-11.647C867.129,-17.953 865.765,-24.682 865.765,-31.835C865.765,-39.082 867.129,-45.859 869.859,-52.165C872.541,-58.518 876.259,-64.071 881.012,-68.824C885.765,-73.576 891.318,-77.294 897.671,-79.976C903.976,-82.706 910.753,-84.071 918,-84.071C925.247,-84.071 932.047,-82.706 938.4,-79.976C944.753,-77.294 950.282,-73.576 954.988,-68.824C959.741,-64.071 963.482,-58.518 966.212,-52.165C968.894,-45.859 970.235,-39.082 970.235,-31.835C970.235,-27.6 969.788,-23.647 968.894,-19.976ZM918,-60.282C910.376,-60.282 903.647,-57.529 897.812,-52.024C895.318,-49.482 893.412,-46.706 892.094,-43.694L943.906,-43.694C942.588,-46.706 940.682,-49.482 938.188,-52.024C932.635,-57.529 925.906,-60.282 918,-60.282ZM1004.89,-73.765C1008.57,-76.776 1012.75,-79.271 1017.46,-81.247C1022.12,-83.224 1027.41,-84.212 1033.34,-84.212L1033.34,-60.494C1025.43,-60.494 1018.71,-57.718 1013.15,-52.165C1007.65,-46.376 1004.89,-39.671 1004.89,-32.047L1004.89,17.647L981.106,17.647L981.106,-81.459L1004.89,-81.459L1004.89,-73.765ZM1145.72,-81.247L1145.72,7.765C1145.72,14.871 1144.38,21.6 1141.69,27.953C1138.96,34.259 1135.25,39.788 1130.54,44.541C1125.79,49.294 1120.24,53.059 1113.88,55.835C1107.58,58.612 1100.78,60 1093.48,60C1087.55,60 1081.95,59.082 1076.68,57.247C1071.41,55.365 1066.54,52.706 1062.07,49.271L1079.29,32.259C1083.48,34.894 1088.21,36.212 1093.48,36.212C1101.53,36.212 1108.26,33.388 1113.67,27.741C1119.22,22.188 1122,15.529 1122,7.765L1122,-32.047C1122,-39.671 1119.22,-46.376 1113.67,-52.165C1108.16,-57.718 1101.43,-60.494 1093.48,-60.494C1085.86,-60.494 1079.15,-57.718 1073.37,-52.165C1067.81,-46.376 1065.04,-39.671 1065.04,-32.047C1065.04,-24.094 1067.81,-17.365 1073.37,-11.859C1079.15,-6.306 1085.86,-3.529 1093.48,-3.529C1097.48,-3.529 1101.06,-4.188 1104.21,-5.506L1113.11,16.659C1107.18,19.012 1100.78,20.188 1093.91,20.188L1093.48,20.188C1086.38,20.188 1079.67,18.847 1073.37,16.165C1067.01,13.482 1061.46,9.765 1056.71,5.012C1051.95,0.259 1048.19,-5.294 1045.41,-11.647C1042.63,-17.953 1041.25,-24.753 1041.25,-32.047C1041.25,-39.294 1042.45,-46.071 1044.85,-52.376C1047.2,-58.729 1050.52,-64.282 1054.8,-69.035C1059.13,-73.788 1064.28,-77.506 1070.26,-80.188C1076.28,-82.871 1082.85,-84.212 1089.95,-84.212C1096.82,-84.212 1102.89,-83.2 1108.16,-81.176C1113.43,-79.153 1118.05,-76.612 1122,-73.553L1122,-81.247L1145.72,-81.247ZM1243.48,-81.247L1269.6,-81.247L1223.72,17.647L1217.58,31.129C1213.86,39.176 1208.31,45.553 1200.92,50.259C1193.53,55.012 1185.37,57.388 1176.42,57.388L1165.91,57.388L1171.84,33.671L1177.62,33.671C1181.43,33.671 1184.99,32.612 1188.28,30.494C1191.58,28.376 1194.02,25.553 1195.62,22.024L1197.6,17.647L1151.65,-81.247L1177.77,-81.247L1210.66,-10.447L1243.48,-81.247Z" style="fill:rgb(253,233,23);fill-rule:nonzero;"/>
            </g>
        </g>
    </g>
</svg>
