
<svg
  version="1.0"
  xmlns="http://www.w3.org/2000/svg"
  xmlns:xlink="http://www.w3.org/1999/xlink"
  width="2400"
  height="1800"
>
  
  <rect
    x="0"
    y="0"
    width="100%"
    height="100%"
    fill="#000000"
    fill-opacity="1"
  ></rect>
  <svg
    version="1.0"
    xmlns="http://www.w3.org/2000/svg"
    xmlns:xlink="http://www.w3.org/1999/xlink"
    x="0"
    y="0"
    width="2400"
    height="1800"
    viewBox="0 0 340.000000 250.000000"
    preserveAspectRatio="xMidYMid meet"
    color-interpolation-filters="sRGB"
  >
    <defs><linearGradient id="92" x1="0%" y1="0%" x2="100%" y2="0%"><stop offset="0%" stop-color="#fa71cd"/> <stop offset="100%" stop-color="#9b59b6"/></linearGradient><linearGradient id="93" x1="0%" y1="0%" x2="100%" y2="0%"><stop offset="0%" stop-color="#f9d423"/> <stop offset="100%" stop-color="#f83600"/></linearGradient><linearGradient id="94" x1="0%" y1="0%" x2="100%" y2="0%"><stop offset="0%" stop-color="#0064d2"/> <stop offset="100%" stop-color="#1cb0f6"/></linearGradient><linearGradient id="95" x1="0%" y1="0%" x2="100%" y2="0%"><stop offset="0%" stop-color="#f00978"/> <stop offset="100%" stop-color="#3f51b1"/></linearGradient><linearGradient id="96" x1="0%" y1="0%" x2="100%" y2="0%"><stop offset="0%" stop-color="#7873f5"/> <stop offset="100%" stop-color="#ec77ab"/></linearGradient><linearGradient id="97" x1="0%" y1="0%" x2="100%" y2="0%"><stop offset="0%" stop-color="#f9d423"/> <stop offset="100%" stop-color="#e14fad"/></linearGradient><linearGradient id="98" x1="0%" y1="0%" x2="100%" y2="0%"><stop offset="0%" stop-color="#009efd"/> <stop offset="100%" stop-color="#2af598"/></linearGradient><linearGradient id="99" x1="0%" y1="0%" x2="100%" y2="0%"><stop offset="0%" stop-color="#ffcc00"/> <stop offset="100%" stop-color="#00b140"/></linearGradient><linearGradient id="100" x1="0%" y1="0%" x2="100%" y2="0%"><stop offset="0%" stop-color="#d51007"/> <stop offset="100%" stop-color="#ff8177"/></linearGradient><linearGradient id="102" x1="0%" y1="0%" x2="100%" y2="0%"><stop offset="0%" stop-color="#a2b6df"/> <stop offset="100%" stop-color="#0c3483"/></linearGradient><linearGradient id="103" x1="0%" y1="0%" x2="100%" y2="0%"><stop offset="0%" stop-color="#7ac5d8"/> <stop offset="100%" stop-color="#eea2a2"/></linearGradient><linearGradient id="104" x1="0%" y1="0%" x2="100%" y2="0%"><stop offset="0%" stop-color="#00ecbc"/> <stop offset="100%" stop-color="#007adf"/></linearGradient><linearGradient id="105" x1="0%" y1="0%" x2="100%" y2="0%"><stop offset="0%" stop-color="#b88746"/> <stop offset="100%" stop-color="#fdf5a6"/></linearGradient></defs> <g fill="#fde917" class="icon-text-wrapper icon-svg-group iconsvg" transform="translate(46.98999786376953,94.99159812927246)"><g class="iconsvg-imagesvg" transform="translate(0,0)"><g><rect fill="#fde917" fill-opacity="0" stroke-width="2" x="0" y="0" width="60" height="60.01680470531748" class="image-rect"/> <svg x="0" y="0" width="60" height="60.01680470531748" filtersec="colorsb3937281560" class="image-svg-svg primary" style="overflow: visible;"><svg fill="#28dece" xmlns="http://www.w3.org/2000/svg" xmlns:xlink="http://www.w3.org/1999/xlink" version="1.1" x="0px" y="0px" viewBox="5.699999809265137 5.724999904632568 88.55000305175781 88.57500457763672" style="enable-background:new 0 0 100 100;" xml:space="preserve"><path d="M48.9,6.1L35,20c-1.2,1.2-1.9,2.8-1.9,4.5c0,1.7,0.7,3.3,1.9,4.5c0,0,0,0,0,0L48.9,43c0.3,0.3,0.7,0.4,1.1,0.4  s0.8-0.2,1.1-0.4L65,29.1c2.5-2.5,2.5-6.6,0-9.1L51.1,6.1C50.5,5.6,49.5,5.6,48.9,6.1z"/><path d="M43.5,50c0-0.4-0.2-0.8-0.4-1.1L29.1,35c-2.5-2.5-6.6-2.5-9.1,0L6.1,48.9c-0.3,0.3-0.4,0.7-0.4,1.1s0.2,0.8,0.4,1.1L20,65  c1.2,1.2,2.8,1.9,4.5,1.9s3.3-0.7,4.5-1.9L43,51.1C43.3,50.8,43.5,50.4,43.5,50z"/><path d="M80,35c-2.5-2.5-6.6-2.5-9.1,0L57,48.9c-0.3,0.3-0.4,0.7-0.4,1.1s0.2,0.8,0.4,1.1L70.9,65c1.2,1.2,2.8,1.9,4.5,1.9  c1.7,0,3.3-0.7,4.5-1.9l13.9-13.9c0.6-0.6,0.6-1.5,0-2.1L80,35z"/><path d="M51.1,57c-0.6-0.6-1.5-0.6-2.1,0L35,70.9c-2.5,2.5-2.5,6.6,0,9.1l13.9,13.9c0.3,0.3,0.7,0.4,1.1,0.4s0.8-0.1,1.1-0.4L65,80  c2.5-2.5,2.5-6.6,0-9.1L51.1,57z"/></svg></svg> </g></g> <g transform="translate(67,18.16340160369873)"><g fill-rule="" class="tp-name iconsvg-namesvg"><g transform="scale(1)"><g><path d="M15.86-14.41L15.86-14.41Q17.04-14.41 17.92-13.96 18.81-13.51 19.37-12.73 19.93-11.94 20.21-10.9 20.49-9.87 20.49-8.66L20.49-8.66 20.49 0 17.13 0 17.13-8.66Q17.13-9.64 16.42-10.34L16.42-10.34Q15.75-11.04 14.74-11.04L14.74-11.04Q13.73-11.04 13.06-10.34L13.06-10.34Q12.36-9.64 12.36-8.66L12.36-8.66 12.36 0 9 0 9-8.66Q9-9.64 8.3-10.34L8.3-10.34Q7.96-10.71 7.53-10.88 7.09-11.04 6.61-11.04L6.61-11.04Q5.58-11.04 4.91-10.34L4.91-10.34Q4.2-9.64 4.2-8.66L4.2-8.66 4.2 0 0.84 0 0.84-14.01 4.2-14.01 4.2-12.78Q5.02-13.48 5.91-13.94 6.81-14.41 7.74-14.41L7.74-14.41Q9-14.41 9.81-13.9 10.62-13.4 11.27-12.5L11.27-12.5Q12.02-13.31 13.23-13.86 14.43-14.41 15.86-14.41ZM36.49-5.33L32.96-5.33 25.62-5.33Q25.9-4.68 26.43-4.18L26.43-4.18Q27.02-3.59 27.75-3.29 28.48-3 29.29-3L29.29-3Q30.44-3 31.34-3.53L31.34-3.53 34.84-2.13Q33.83-0.95 32.4-0.29 30.97 0.36 29.29 0.36L29.29 0.36Q27.75 0.36 26.4-0.21 25.06-0.78 24.05-1.79 23.04-2.8 22.46-4.15 21.89-5.49 21.89-7.01L21.89-7.01Q21.89-8.55 22.46-9.89 23.04-11.24 24.05-12.25 25.06-13.26 26.4-13.83 27.75-14.41 29.29-14.41L29.29-14.41Q30.83-14.41 32.18-13.83 33.52-13.26 34.53-12.25 35.54-11.24 36.11-9.89 36.69-8.55 36.69-7.01L36.69-7.01Q36.69-6.11 36.49-5.33L36.49-5.33ZM29.29-11.04L29.29-11.04Q27.66-11.04 26.43-9.87L26.43-9.87Q25.9-9.33 25.62-8.69L25.62-8.69 32.96-8.69Q32.68-9.33 32.15-9.87L32.15-9.87Q30.97-11.04 29.29-11.04ZM45.29-14.41L45.29-14.41Q46.67-14.41 47.79-13.89 48.91-13.37 49.71-12.46 50.51-11.55 50.94-10.34 51.38-9.14 51.38-7.76L51.38-7.76 51.38 0 48.01 0 48.01-7.76Q48.01-9.17 47.03-10.09L47.03-10.09Q46.08-11.04 44.73-11.04L44.73-11.04Q43.36-11.04 42.41-10.09L42.41-10.09Q41.45-9.14 41.45-7.76L41.45-7.76 41.45 0 38.09 0 38.09-14.01 41.45-14.01 41.45-12.95Q42.21-13.59 43.16-14 44.12-14.41 45.29-14.41ZM59.62-3.36L60.46 0 57.37 0Q56.42 0 55.58-0.36 54.74-0.73 54.12-1.36 53.51-1.99 53.14-2.83 52.78-3.67 52.78-4.62L52.78-4.62 52.78-16.85 56.14-17.69 56.14-12.33 58.1-12.33 58.94-8.97 56.14-8.97 56.14-4.62Q56.14-4.09 56.51-3.73 56.87-3.36 57.37-3.36L57.37-3.36 59.62-3.36ZM67.72-11.04L67.72-11.04Q66.04-11.04 64.86-9.87L64.86-9.87Q63.68-8.69 63.68-7.01L63.68-7.01Q63.68-5.35 64.86-4.18L64.86-4.18Q65.42-3.59 66.16-3.29 66.9-3 67.72-3L67.72-3Q68.53-3 69.26-3.29 69.99-3.59 70.58-4.18L70.58-4.18Q71.75-5.35 71.75-7.01L71.75-7.01Q71.75-8.69 70.58-9.87L70.58-9.87Q69.34-11.04 67.72-11.04ZM67.72-14.41L67.72-14.41Q69.26-14.41 70.6-13.83 71.95-13.26 72.96-12.25 73.97-11.24 74.54-9.89 75.12-8.55 75.12-7.01L75.12-7.01Q75.12-5.49 74.54-4.15 73.97-2.8 72.96-1.79 71.95-0.78 70.6-0.21 69.26 0.36 67.72 0.36L67.72 0.36Q66.18 0.36 64.83-0.21 63.48-0.78 62.48-1.79 61.47-2.8 60.89-4.15 60.32-5.49 60.32-7.01L60.32-7.01Q60.32-8.55 60.89-9.89 61.47-11.24 62.48-12.25 63.48-13.26 64.83-13.83 66.18-14.41 67.72-14.41ZM80.02-12.95L80.02-12.95Q80.81-13.59 81.8-14.01 82.8-14.43 84.06-14.43L84.06-14.43 84.06-11.07Q82.38-11.07 81.2-9.89L81.2-9.89Q80.02-8.66 80.02-7.04L80.02-7.04 80.02 0 76.66 0 76.66-7.04 76.66-14.04 80.02-14.04 80.02-12.95ZM89.66 0L89.66 0 86.3 0 86.3-3.36 89.66-3.36 89.66 0ZM106.51-5.33L102.98-5.33 95.63-5.33Q95.91-4.68 96.45-4.18L96.45-4.18Q97.04-3.59 97.76-3.29 98.49-3 99.31-3L99.31-3Q100.45-3 101.35-3.53L101.35-3.53 104.86-2.13Q103.85-0.95 102.42-0.29 100.99 0.36 99.31 0.36L99.31 0.36Q97.76 0.36 96.42-0.21 95.07-0.78 94.06-1.79 93.06-2.8 92.48-4.15 91.91-5.49 91.91-7.01L91.91-7.01Q91.91-8.55 92.48-9.89 93.06-11.24 94.06-12.25 95.07-13.26 96.42-13.83 97.76-14.41 99.31-14.41L99.31-14.41Q100.85-14.41 102.19-13.83 103.54-13.26 104.55-12.25 105.56-11.24 106.13-9.89 106.71-8.55 106.71-7.01L106.71-7.01Q106.71-6.11 106.51-5.33L106.51-5.33ZM99.31-11.04L99.31-11.04Q97.68-11.04 96.45-9.87L96.45-9.87Q95.91-9.33 95.63-8.69L95.63-8.69 102.98-8.69Q102.7-9.33 102.16-9.87L102.16-9.87Q100.99-11.04 99.31-11.04ZM115.31-14.41L115.31-14.41Q116.68-14.41 117.8-13.89 118.93-13.37 119.72-12.46 120.52-11.55 120.96-10.34 121.39-9.14 121.39-7.76L121.39-7.76 121.39 0 118.03 0 118.03-7.76Q118.03-9.17 117.05-10.09L117.05-10.09Q116.09-11.04 114.75-11.04L114.75-11.04Q113.38-11.04 112.42-10.09L112.42-10.09Q111.47-9.14 111.47-7.76L111.47-7.76 111.47 0 108.11 0 108.11-14.01 111.47-14.01 111.47-12.95Q112.23-13.59 113.18-14 114.13-14.41 115.31-14.41ZM137.26-5.33L133.72-5.33 126.38-5.33Q126.66-4.68 127.19-4.18L127.19-4.18Q127.78-3.59 128.51-3.29 129.24-3 130.05-3L130.05-3Q131.2-3 132.1-3.53L132.1-3.53 135.6-2.13Q134.59-0.95 133.16-0.29 131.73 0.36 130.05 0.36L130.05 0.36Q128.51 0.36 127.17-0.21 125.82-0.78 124.81-1.79 123.8-2.8 123.23-4.15 122.65-5.49 122.65-7.01L122.65-7.01Q122.65-8.55 123.23-9.89 123.8-11.24 124.81-12.25 125.82-13.26 127.17-13.83 128.51-14.41 130.05-14.41L130.05-14.41Q131.59-14.41 132.94-13.83 134.29-13.26 135.29-12.25 136.3-11.24 136.88-9.89 137.45-8.55 137.45-7.01L137.45-7.01Q137.45-6.11 137.26-5.33L137.26-5.33ZM130.05-11.04L130.05-11.04Q128.43-11.04 127.19-9.87L127.19-9.87Q126.66-9.33 126.38-8.69L126.38-8.69 133.72-8.69Q133.44-9.33 132.91-9.87L132.91-9.87Q131.73-11.04 130.05-11.04ZM142.36-12.95L142.36-12.95Q143.14-13.59 144.14-14.01 145.13-14.43 146.39-14.43L146.39-14.43 146.39-11.07Q144.71-11.07 143.53-9.89L143.53-9.89Q142.36-8.66 142.36-7.04L142.36-7.04 142.36 0 138.99 0 138.99-7.04 138.99-14.04 142.36-14.04 142.36-12.95ZM162.31-14.01L162.31-1.4Q162.31 0.11 161.74 1.46 161.16 2.8 160.16 3.81 159.15 4.82 157.8 5.41 156.46 6 154.91 6L154.91 6Q153.65 6 152.53 5.61 151.41 5.21 150.46 4.48L150.46 4.48 152.9 2.07Q153.79 2.63 154.91 2.63L154.91 2.63Q156.62 2.63 157.77 1.43L157.77 1.43Q158.95 0.25 158.95-1.4L158.95-1.4 158.95-7.04Q158.95-8.66 157.77-9.89L157.77-9.89Q156.6-11.07 154.91-11.07L154.91-11.07Q153.29-11.07 152.06-9.89L152.06-9.89Q150.88-8.66 150.88-7.04L150.88-7.04Q150.88-5.35 152.06-4.18L152.06-4.18Q153.29-3 154.91-3L154.91-3Q155.76-3 156.43-3.28L156.43-3.28 157.69-0.14Q156.43 0.36 154.97 0.36L154.97 0.36 154.91 0.36Q153.4 0.36 152.06-0.21 150.71-0.78 149.7-1.79 148.69-2.8 148.1-4.15 147.51-5.49 147.51-7.04L147.51-7.04Q147.51-8.58 148.02-9.92 148.52-11.27 149.43-12.28 150.35-13.29 151.62-13.86 152.9-14.43 154.41-14.43L154.41-14.43Q155.87-14.43 156.99-14 158.11-13.57 158.95-12.92L158.95-12.92 158.95-14.01 162.31-14.01ZM176.16-14.01L179.86-14.01 173.36 0 172.49 1.91Q171.7 3.62 170.13 4.62 168.56 5.63 166.66 5.63L166.66 5.63 165.17 5.63 166.01 2.27 166.83 2.27Q167.64 2.27 168.34 1.82 169.04 1.37 169.38 0.62L169.38 0.62 169.66 0 163.15-14.01 166.85-14.01 171.51-3.98 176.16-14.01Z" transform="translate(-0.8400000333786011, 17.690000534057617)"/></g> </g></g> </g></g><defs v-gra="od"/>
  </svg>
</svg>


