<?xml version="1.0" encoding="UTF-8" standalone="no"?>
<!DOCTYPE svg PUBLIC "-//W3C//DTD SVG 1.1//EN" "http://www.w3.org/Graphics/SVG/1.1/DTD/svg11.dtd">
<svg width="100%" height="100%" viewBox="0 0 2191 2192" version="1.1" xmlns="http://www.w3.org/2000/svg" xmlns:xlink="http://www.w3.org/1999/xlink" xml:space="preserve" xmlns:serif="http://www.serif.com/" style="fill-rule:evenodd;clip-rule:evenodd;stroke-linejoin:round;stroke-miterlimit:2;">
    <g transform="matrix(1,0,0,1,4492.92,266.001)">
        <g transform="matrix(3.32131,0,0,3.32131,-5203.83,-1926.46)">
            <g transform="matrix(1,0,0,1,214.047,482.294)">
                <rect x="0" y="17.647" width="423.529" height="423.648" style="fill:rgb(253,233,23);fill-opacity:0;"/>
            </g>
            <g transform="matrix(1,0,0,1,208.347,476.569)">
                <path d="M345.176,60.706L247.059,158.824C238.588,167.294 233.647,178.588 233.647,190.588C233.647,202.588 238.588,213.882 247.059,222.353L345.176,321.176C347.294,323.294 350.118,324 352.941,324C355.765,324 358.588,322.588 360.706,321.176L458.824,223.059C476.471,205.412 476.471,176.471 458.824,158.824L360.706,60.706C356.471,57.176 349.412,57.176 345.176,60.706Z" style="fill:rgb(40,222,206);fill-rule:nonzero;"/>
            </g>
            <g transform="matrix(1,0,0,1,208.347,476.569)">
                <path d="M307.059,370.588C307.059,367.765 305.647,364.941 304.235,362.824L205.412,264.706C187.765,247.059 158.824,247.059 141.176,264.706L43.059,362.824C40.941,364.941 40.235,367.765 40.235,370.588C40.235,373.412 41.647,376.235 43.059,378.353L141.176,476.471C149.647,484.941 160.941,489.882 172.941,489.882C184.941,489.882 196.235,484.941 204.706,476.471L303.529,378.353C305.647,376.235 307.059,373.412 307.059,370.588Z" style="fill:rgb(40,222,206);fill-rule:nonzero;"/>
            </g>
            <g transform="matrix(1,0,0,1,208.347,476.569)">
                <path d="M564.706,264.706C547.059,247.059 518.118,247.059 500.471,264.706L402.353,362.824C400.235,364.941 399.529,367.765 399.529,370.588C399.529,373.412 400.941,376.235 402.353,378.353L500.471,476.471C508.941,484.941 520.235,489.882 532.235,489.882C544.235,489.882 555.529,484.941 564,476.471L662.118,378.353C666.353,374.118 666.353,367.765 662.118,363.529L564.706,264.706Z" style="fill:rgb(40,222,206);fill-rule:nonzero;"/>
            </g>
            <g transform="matrix(1,0,0,1,208.347,476.569)">
                <path d="M360.706,420C356.471,415.765 350.118,415.765 345.882,420L247.059,518.118C229.412,535.765 229.412,564.706 247.059,582.353L345.176,680.471C347.294,682.588 350.118,683.294 352.941,683.294C355.765,683.294 358.588,682.588 360.706,680.471L458.824,582.353C476.471,564.706 476.471,535.765 458.824,518.118L360.706,420Z" style="fill:rgb(40,222,206);fill-rule:nonzero;"/>
            </g>
        </g>
    </g>
</svg>
